<svg xmlns="http://www.w3.org/2000/svg" width="493.756" height="524.605" viewBox="0 0 493.756 524.605">
  <g id="nested-hearts" transform="translate(141.792)">
    <path id="Path_12" data-name="Path 12" d="M147.887,25.734A122.334,122.334,0,0,0,118,29.381C66.04,42.366,22.312,89.155,20.212,156.36c-1.12,35.8,9.934,65.568,27.54,91.12S89.3,294.638,114.6,315.922c50.6,42.573,106.39,83.87,132.4,148.293l8.9,22.05,8.49-22.212c24.65-64.483,78.63-107.776,128.6-151.27s96.634-88.2,98.783-155.834c2.276-71.537-42.363-116.7-95.522-127.137-49-9.622-105.34,9.122-140.23,57.744-27.547-42.14-68.33-61.74-108.14-61.823Z" transform="translate(-149.905 11)" fill="#d5f0ff" stroke="#1195c9" stroke-width="20"/>
    <path id="Path_3" data-name="Path 3" d="M0,0H484.192V512H0Z" transform="translate(-141.792)" fill="none"/>
    <g id="Group_2" data-name="Group 2" transform="translate(15.497 153.634)">
      <path id="Path_4" data-name="Path 4" d="M214.512,167.634a46.929,46.929,0,0,0-11.47,1.4c-19.938,4.983-36.72,22.938-37.524,48.73a56.906,56.906,0,0,0,10.568,34.965c6.758,9.806,15.945,18.1,25.652,26.264,19.417,16.338,40.828,32.186,50.81,56.908l3.415,8.463,3.258-8.525c9.46-24.746,30.175-41.358,49.352-58.05s37.084-33.846,37.908-59.8c.873-27.452-16.256-44.784-36.656-48.79-18.8-3.69-40.425,3.5-53.814,22.16-10.57-16.172-26.22-23.694-41.5-23.725Z" transform="translate(-165.488 -167.634)" fill="#c20000"/>
    </g>
  </g>
</svg>
