<svg id="rupee" xmlns="http://www.w3.org/2000/svg" width="490.579" height="490.579" viewBox="0 0 490.579 490.579">
  <path id="Path_7" data-name="Path 7" d="M0,0H490.579V490.579H0Z" fill="none"/>
  <g id="Group_4" data-name="Group 4" transform="translate(94.858 24.027)">
    <path id="Path_8" data-name="Path 8" d="M240.808,25.076,106.716,125.614l62.277,31.127L240.808,102.9V25.077Zm17.247,0V102.9l71.814,53.843,62.281-31.129Zm8.889,21.374,35.1,25.331c-24.074-4.031-28.5,8.815-35.785,27.6l.687-52.926Zm-36.209,3.762-.263,31.966C209.343,83.31,176.061,96,127.093,124.327L230.736,50.212Zm18.7,67.776-70.9,53.159V321.528l70.9,53.161,70.9-53.161V171.149l-70.9-53.161Zm4.039,16.931c-35.934,32.424-58.1,157.937-60.987,190.764l-.335-144.774,61.322-45.992ZM99,141.037v210.6l62.281-31.129V172.165Zm300.863,0-62.281,31.129V320.512l62.281,31.129ZM111.119,163.371,149.9,183.33c-44.344,37.135-29.5,117.56-40.124,155.77l1.345-175.729Zm57.873,172.565-62.276,31.127L240.808,467.6V389.779l-71.814-53.843Zm160.878,0-71.815,53.842V467.6L392.147,367.063,329.87,335.936ZM167.543,352.39c-18.774,15.6-16.044,23.346,4.29,52.136L129.438,368.1l38.106-15.708Z" transform="translate(-99 -25.076)" fill="#17bf66"/>
  </g>
</svg>
